<?xml version="1.0" encoding="UTF-8"?>
<svg width="70px" height="96px" viewBox="0 0 70 96" version="1.1" xmlns="http://www.w3.org/2000/svg" xmlns:xlink="http://www.w3.org/1999/xlink">
    <!-- Generator: Sketch 41.2 (35397) - http://www.bohemiancoding.com/sketch -->
    <title>Pistol</title>
    <desc>Created with Sketch.</desc>
    <defs></defs>
    <g id="Page-1" stroke="none" stroke-width="1" fill="none" fill-rule="evenodd">
        <g id="SPSF" transform="translate(-100.000000, -17.000000)">
            <g id="Pistol" transform="translate(100.000000, 17.000000)">
                <path d="M69.0225055,63.2785176 C68.9570813,70.2961547 62.620589,77.3609342 55.9945143,81.4228536 C49.5925978,85.0714548 40.7109978,90.9346517 34.5343121,95.6905507 C28.344756,90.7351188 19.4760264,84.8412245 12.8488791,81.4228536 C6.40191648,77.8235874 0,69.6504137 0,63.2785176 L0,0.0693519985 L69.0225055,0.0693519985 L69.0225055,63.2785176" id="Fill-1" fill="#FFDA1A"></path>
                <path d="M53.834444,77.5988388 C48.157556,80.8406999 40.5951648,85.7665309 34.5793582,90.1825662 C28.5077802,85.5911173 20.8649495,80.6203367 14.8566505,77.5133247 C9.13471648,74.2901013 4.31263297,67.3535929 4.31263297,63.2785176 L4.31263297,4.4864837 L64.7098725,4.4864837 L64.7098725,63.2785176 C64.6390857,67.8853152 60.0561758,73.7682461 53.834444,77.5988388" id="Fill-2" fill="#014A86"></path>
                <path d="M44.7715868,20.6376836 C44.7715868,21.0301713 44.8262857,21.4796684 44.5538637,21.7592337 C44.8455912,22.1144461 45.4301187,22.2087309 45.6478418,22.7316824 C45.831244,23.1998173 45.6478418,23.7227688 45.3571868,24.0790775 C45.1008527,24.3586428 44.7533538,24.4156522 44.408,24.4518313 C44.1688264,24.9002321 44.8262857,25.162256 45.1362462,25.2751785 C46.1776703,26.0787917 46.7268044,23.572571 47.4014242,25.2751785 C48.0041846,25.480193 48.6058725,25.2554445 49.0810022,24.9002321 C49.2450989,24.7708646 49.3362637,24.6020291 49.2997978,24.3772805 C48.7699692,24.3400052 47.8937143,24.2457204 47.7660835,23.4804789 C47.7478505,22.8807839 47.9859516,22.2635476 48.5704791,22.0585331 C48.8064352,21.9094316 49.1550066,22.0037163 49.3727297,22.1330838 C49.8671648,21.3853837 50.341222,20.2254618 51.3461802,19.8899834 L50.030189,26.5469265 L37.1770198,26.5469265 C36.8477538,24.3027298 36.2449934,22.1889969 35.8621011,19.9645342 C36.7758945,20.3011089 37.3582769,21.3108329 37.7604747,22.1330838 C38.2356044,21.7592337 38.7643604,22.1528178 39.1483253,22.4323831 C39.4218198,22.7875955 39.4046593,23.3489188 39.294189,23.7797782 C39.0743209,24.3959182 38.3814681,24.4156522 37.907411,24.3772805 C37.9428044,24.7708646 38.3814681,25.126077 38.7096615,25.2751785 C39.3306549,25.4615554 40.1532835,25.3310915 40.3903121,24.6765798 C40.9008352,25.0317922 41.4306637,25.6117532 42.142822,25.2751785 C42.435622,25.126077 42.8914462,25.0131545 42.9461451,24.6020291 C42.4163165,24.4342899 41.7781626,24.2654544 41.559367,23.6295804 C41.4853626,22.9750687 41.6129934,22.3578324 42.2168264,22.0585331 C42.399156,22.0771707 42.5074813,21.9839823 42.6544176,21.9094316 C42.3069187,21.4226591 42.3798505,20.8624321 42.5814857,20.3383842 C43.0920088,19.4404863 44.4798593,19.7595196 44.7715868,20.6376836" id="Fill-3" fill="#FFDA1A"></path>
                <path d="M26.6598154,20.4874857 C27.2443429,21.1617314 25.7470945,22.1889969 27.0984791,22.2087309 C27.5736088,22.582581 27.7194725,23.218455 27.5360703,23.7797782 C27.3902066,24.5833914 26.2039912,24.1909037 26.3680879,24.9002321 C26.8614505,25.1819901 27.4631385,25.6863039 28.0476659,25.2751785 L28.7780571,24.7511306 C28.8338286,25.162256 29.2896527,25.2751785 29.5813802,25.42428 C30.2570725,25.480193 30.8051341,25.0888016 31.1880264,24.6020291 C31.1333275,23.9475174 30.5488,24.6206668 30.2388396,24.3027298 C29.727244,24.0407058 29.6725451,23.3489188 29.727244,22.8807839 C29.8377143,22.5453056 30.2013011,22.1714555 30.5316396,22.0585331 C31.5526857,22.6571317 31.5172923,21.3853837 31.9913495,20.9369829 L33.1614769,19.9645342 L31.8444132,26.6839683 L19.1381802,26.696028 L17.6763253,20.0401812 C18.6448176,20.0763603 19.1735736,21.4040214 19.6487033,22.2087309 C20.0509011,21.9280693 20.6171956,22.0771707 20.963622,22.3578324 C21.3840527,22.7130448 21.3840527,23.3489188 21.256422,23.854329 C20.963622,24.3213675 20.359789,24.5647537 19.8674989,24.4518313 C19.7774066,24.9945169 20.5260308,25.1819901 20.8906901,25.42428 C21.4934505,25.480193 22.1691429,25.4056423 22.3514725,24.7511306 C22.8619956,25.106343 23.3918242,25.6863039 24.1050549,25.3497292 C24.3967824,25.1995314 24.8526066,25.0888016 24.9073055,24.6765798 C24.4686418,24.4342899 23.794022,24.3213675 23.5194549,23.7041311 C23.3918242,23.0682571 23.6653187,22.3019193 24.322778,22.0585331 C24.9255385,22.0212577 24.3056176,21.6660453 24.3967824,21.3853837 C24.3774769,20.9742582 24.3774769,20.5444951 24.6885099,20.2638335 C25.1078681,19.6652348 26.331622,19.7408819 26.6598154,20.4874857" id="Fill-4" fill="#FFDA1A"></path>
                <polyline id="Fill-5" fill="#FFDA1A" points="31.5526857 28.2418596 19.4309802 28.2418596 19.2229099 27.2507733 31.6985495 27.2266539 31.5526857 28.2418596"></polyline>
                <path d="M49.7384615,28.2298 L37.5406066,28.2418596 C37.4698198,27.9239226 37.3968879,27.4930632 37.3228835,27.1762225 L49.9572571,27.1937639 L49.7384615,28.2298" id="Fill-6" fill="#FFDA1A"></path>
                <path d="M35.6433055,30.5101757 C35.8621011,30.9585765 35.5703736,31.389436 35.4245099,31.7830201 C35.8256352,32.0066723 36.445556,32.1744115 36.5184879,32.7543724 C36.6300308,33.4088841 36.4101626,34.0074828 35.8621011,34.3243234 C35.6250725,34.3626952 35.3687385,34.3243234 35.2057143,34.549072 C35.3140396,34.9985692 35.7902418,35.1663083 36.1538286,35.2978685 C37.2134857,35.7462693 37.6156835,33.7268211 38.3450022,35.2978685 C39.058233,35.4656077 39.8240176,35.1103953 40.2433758,34.4756176 C39.9141099,33.9888451 39.3306549,34.5117966 38.9284571,34.0261205 C38.6560352,33.6138987 38.5090989,32.9780247 38.7836659,32.5307202 C39.1311648,31.9496629 39.7510857,31.8202955 40.3163077,32.0066723 C40.737811,31.1657838 41.3384264,30.1363257 42.2897582,29.7624756 L40.9008352,36.5685202 L28.2664615,36.5685202 L26.878611,29.9126734 C27.8471033,29.9499488 28.3758593,31.2776099 28.850989,32.0812231 C29.1073231,31.8564745 29.6178462,31.8564745 29.8731077,32.0812231 C30.4576352,32.4737108 30.4394022,33.2027733 30.3117714,33.8013719 C30.0554374,34.175222 29.5449143,34.4942553 29.0697846,34.2497727 C28.7051253,34.4756176 29.1427165,34.7365452 29.2896527,34.9240184 C29.6360791,35.3724192 30.3117714,35.2792308 30.7493626,35.2978685 C30.9874637,35.129033 31.2244923,34.9985692 31.3338901,34.6992698 C31.8819516,35.1663083 32.6670418,35.5039794 33.3792,35.148767 C33.6526945,35.0544822 33.7266989,34.7551829 33.8897231,34.549072 C33.397433,34.3056858 32.6305758,34.2135937 32.5029451,33.5020726 C32.3195429,32.7916478 32.7410462,32.1941455 33.3062681,31.9321216 C33.9819604,31.707373 32.8869099,30.9223975 33.4521319,30.3610742 C33.6162286,30.0244995 33.9626549,29.8370263 34.2554549,29.6879248 C34.8399824,29.6506495 35.4245099,29.9313111 35.6433055,30.5101757" id="Fill-7" fill="#FFDA1A"></path>
                <polyline id="Fill-8" fill="#FFDA1A" points="40.5361758 38.2645496 28.6321934 38.2645496 28.4123253 37.2175502 40.7549714 37.2175502 40.5361758 38.2645496"></polyline>
                <path d="M30.9477802,49.7322085 C31.8240352,49.4899186 32.6455912,49.8264933 33.4306813,50.0326042 C33.594778,49.8824063 33.594778,49.4712809 33.9422769,49.583107 C34.3991736,49.7705802 33.9969758,50.1246963 34.0141363,50.4053579 C34.999789,51.0982413 34.9450901,52.6495546 36.2793143,52.7986561 L41.9755077,55.9418471 L41.9755077,57.0633973 C41.9755077,57.0633973 17.1196835,43.6332997 17.1443516,43.5247626 C17.0167209,43.2813763 17.3449143,43.0204487 17.4371516,42.7770624 L30.9477802,49.7322085" id="Fill-9" fill="#FFDA1A"></path>
                <path d="M51.1048615,43.6749604 C46.9777758,45.8632441 42.7970637,48.2740836 38.6152791,50.481005 C37.264967,49.8824063 36.4080176,51.116879 35.5489231,51.9764052 C35.274356,51.8273037 35.310822,51.5291008 35.1842637,51.3043522 L50.6661978,43.001811 L51.1048615,43.6749604" id="Fill-10" fill="#FFDA1A"></path>
                <path d="M51.689389,44.7965106 C50.5932659,45.5628484 49.2601143,45.8807854 48.3291604,46.8905095 L48.3291604,47.1898088 L39.3467429,52.0520523 C38.9799385,51.8273037 38.5423473,51.3789029 38.9091516,50.9294058 C42.9064615,48.4615568 47.161178,46.3105485 51.3236571,44.1233612 L51.689389,44.7965106" id="Fill-11" fill="#FFDA1A"></path>
                <path d="M19.5543209,47.0407073 C19.8642813,47.5263835 19.3537582,48.1063444 18.8979341,48.0877068 C17.783578,47.6206683 16.4504264,47.377282 15.7565011,46.2184564 C15.6106374,45.8051383 15.9570637,45.5814861 16.1951648,45.3216548 C17.4725451,45.4882977 18.6780659,46.0496209 19.5543209,47.0407073" id="Fill-12" fill="#FFDA1A"></path>
                <path d="M52.4916396,46.2184564 C52.1988396,47.5077458 50.7402022,47.8432242 49.7159385,48.3124553 C49.3158857,48.331093 48.9136879,48.3486344 48.6948923,47.9375089 C48.8042901,46.2370941 50.6479648,46.0123456 51.8363253,45.5442107 C52.236378,45.5069353 52.3447033,45.9553362 52.4916396,46.2184564" id="Fill-13" fill="#FFDA1A"></path>
                <path d="M35.4019868,56.0153015 C35.0737934,56.128224 34.8174593,56.4088856 34.5268044,56.6139002 C29.6328615,53.7722011 24.7571516,50.9294058 19.774189,48.3124553 L20.2117802,47.5636589 C25.7181363,50.6443588 30.1294418,52.9828403 35.4019868,56.0153015" id="Fill-14" fill="#FFDA1A"></path>
                <path d="M48.4750242,48.5361076 C45.463367,50.4250919 42.2125363,51.9961393 39.1268747,53.8467519 L38.104756,53.3983511 L48.0363604,47.7884074 L48.4750242,48.5361076" id="Fill-15" fill="#FFDA1A"></path>
                <path d="M38.3964835,50.9294058 C38.5798857,52.0520523 37.301433,52.1079654 36.717978,52.5761002 L35.9865143,52.2011538 C36.8263033,51.8097624 36.8638418,50.2376187 38.1776879,50.7057535 L38.3964835,50.9294058" id="Fill-16" fill="#FFDA1A"></path>
                <path d="M38.6892835,52.1266031 C38.6538901,52.6320133 38.104756,52.7811148 37.8130286,53.0979554 C37.5384615,53.0804141 37.301433,52.9674916 37.0826374,52.7986561 C37.557767,52.5936416 38.0865231,51.9764052 38.6892835,52.1266031" id="Fill-17" fill="#FFDA1A"></path>
                <path d="M27.5146198,56.4647987 L25.9079736,57.436151 C25.6527121,57.1949575 25.3245187,56.8583828 25.2505143,56.4647987 C25.3609846,56.4275233 25.4703824,56.3705139 25.6162462,56.3891516 C25.707411,56.5393494 25.725644,56.7257263 25.9079736,56.8386487 L27.2958242,56.0909486 C27.4792264,56.10849 27.5146198,56.3146008 27.5146198,56.4647987" id="Fill-18" fill="#FFDA1A"></path>
                <path d="M36.6450462,56.6895472 C36.1516835,56.7827357 35.6765538,57.7935561 35.1842637,56.9866539 C35.5296176,56.6698132 36.1881495,56.0153015 36.6450462,56.6895472" id="Fill-19" fill="#FFDA1A"></path>
                <path d="M37.8859604,57.436151 C37.5384615,57.754088 36.8810022,58.4085997 36.4241055,57.7365467 L36.2793143,57.5863489 C36.7898374,57.2695082 37.3572044,56.8386487 37.8859604,57.436151" id="Fill-20" fill="#FFDA1A"></path>
                <path d="M41.1721846,57.8867445 C41.1904176,58.0347497 41.1539516,58.2781359 40.9523165,58.1849475 C40.8064527,58.2035852 40.678822,58.1663098 40.5876571,58.0347497 C40.4235604,57.6060829 41.2086505,57.5117981 41.1721846,57.8867445" id="Fill-21" fill="#F9C623"></path>
                <path d="M44.0937495,58.4842468 C44.0937495,58.6530823 44.1291429,58.8394592 43.9468132,58.933744 C43.7097846,58.9885607 43.5456879,58.8580969 43.509222,58.6333483 C43.4545231,58.2781359 43.9661187,58.2419569 44.0937495,58.4842468" id="Fill-22" fill="#F9C623"></path>
                <path d="M25.1775824,60.8029943 C24.7571516,60.9893712 24.1919297,61.4004966 23.7908044,61.0277429 C23.9184352,60.4664196 24.5930549,60.0169225 25.1046505,59.7559948 L25.1775824,60.8029943" id="Fill-23" fill="#FFDA1A"></path>
                <path d="M23.2062769,60.1298449 C23.188044,60.2230333 23.2609758,60.3721348 23.1333451,60.4291442 C22.9874813,60.4477819 22.858778,60.4094102 22.7676132,60.2789464 C22.7129143,60.0366565 23.0968791,59.8305456 23.2062769,60.1298449" id="Fill-24" fill="#FFF101"></path>
                <path d="M46.0650549,62.0001916 C45.9191912,62.0177329 45.7733275,62.2797569 45.6263912,62.073646 C45.4451341,61.8883654 45.4987604,61.6997959 45.7003956,61.5495981 C46.010356,61.4947814 46.1186813,61.6997959 46.0650549,62.0001916" id="Fill-25" fill="#F9C623"></path>
                <path d="M18.6051341,72.0228816 C18.7145319,72.3035432 18.3863385,72.453741 18.2394022,72.5458331 L17.5830154,72.2465338 L13.6382593,68.0574397 C13.4934681,67.7022273 13.9128264,67.4599374 14.1498549,67.3853866 C15.5741714,68.7503231 17.2719824,70.4145589 18.6051341,72.0228816" id="Fill-26" fill="#FFDA1A"></path>
                <path d="M55.4132044,67.9072418 L55.1204044,68.5814876 L50.9579253,72.6949346 C50.7026637,72.7508477 50.5396396,72.5831085 50.3733978,72.397828 L50.3733978,72.0228816 L54.6828132,67.5344881 C55.0110066,67.4961164 55.3402725,67.5344881 55.4132044,67.9072418" id="Fill-27" fill="#FFDA1A"></path>
                <path d="M34.0892132,56.764098 C32.6638242,58.1663098 29.4505319,58.2781359 29.7057934,61.1011973 C29.2499692,62.2249401 28.1173802,62.5965975 27.0770286,62.7467954 C25.8908132,64.3748521 25.0499516,66.206827 23.8637363,67.7581404 L23.6438681,67.7581404 L21.8184264,64.8407943 C20.5035077,65.9634408 20.2300132,67.7581404 19.481389,69.2546369 C19.3537582,70.0407088 19.1167297,70.7511335 18.8979341,71.4988337 C17.5465495,70.2259893 15.9034374,68.5431159 14.6614505,67.1606381 C18.2758681,64.2049202 20.8145407,59.4194202 24.7389187,56.6895472 C24.0096,57.6060829 23.6996396,59.3996861 22.4029538,59.3810484 C21.5813978,60.205492 22.2753231,61.4202306 21.2338989,62.1492931 C21.0161758,62.5604185 21.2521319,63.1776548 21.7454945,63.1962925 C23.0411077,62.8410801 23.3714462,61.0452842 24.9587868,61.4004966 C25.1228835,61.3259458 25.2687473,61.1779407 25.4703824,61.1779407 C25.689178,61.7940807 26.3284044,62.0177329 26.858233,62.2249401 C27.4599209,62.2052061 28.2814769,62.3170322 28.7566066,61.7743467 C29.4505319,61.139569 29.7240264,60.241671 29.4869978,59.3064977 C29.3776,58.7089954 28.7201407,58.2035852 28.2460835,57.8867445 C27.679789,57.6795373 26.8024615,57.6060829 26.2737055,57.9612953 C25.5980132,59.3810484 23.8637363,59.569618 23.2792088,61.0277429 C23.0593407,61.6997959 22.3289495,62.4485924 21.6725626,62.6722446 C21.490233,62.0550083 22.1294593,61.5890661 22.4758857,61.1011973 C22.4029538,60.5968834 22.2206242,59.7362608 22.9134769,59.605797 L23.4980044,59.5312463 L25.1046505,57.1379481 C25.3427516,57.3813343 25.4703824,58.1663098 25.981978,57.8110974 C26.6565978,57.3429626 27.368756,56.9702089 28.0262154,56.4647987 C27.8621187,56.184137 27.8438857,55.8475624 27.5146198,55.6425478 C26.9676308,55.6798232 26.3648703,56.8200111 25.981978,56.0909486 L29.4869978,54.1449549 L34.0892132,56.764098 Z M26.4925011,62.5965975 C25.5980132,64.0371811 24.6852923,65.4964023 23.7908044,66.9347931 C23.1151121,66.1684553 22.7504527,65.1598276 22.1112264,64.3178427 C22.9134769,63.7378817 23.5709363,64.8232529 24.3024,65.0655428 C24.556589,64.1490072 24.3388659,62.9715439 25.0317187,62.2983945 C25.6162462,62.1679307 25.9991385,62.5045054 26.4925011,62.5965975 L26.4925011,62.5965975 Z" id="Fill-28" fill="#FFDA1A"></path>
                <path d="M28.9024703,59.3810484 C29.0483341,60.0366565 28.9936352,60.7843566 28.4648791,61.2513951 C28.0079824,61.6438829 27.2786637,61.8686314 26.7123692,61.5495981 C26.236167,61.3259458 25.7985758,60.8029943 25.689178,60.2789464 C25.725644,59.6617101 25.8350418,59.0642078 26.3466374,58.6333483 C27.1681934,57.8483728 28.537811,58.3910584 28.9024703,59.3810484 Z M27.8803516,59.9807434 C27.8256527,60.261405 27.6422505,60.4477819 27.368756,60.503695 C27.1681934,60.4861536 27.0040967,60.3918689 26.858233,60.205492 C26.7659956,59.8502796 26.9676308,59.4939709 27.2958242,59.4566955 C27.5703912,59.4566955 27.8621187,59.7000818 27.8803516,59.9807434 L27.8803516,59.9807434 Z" id="Fill-29" fill="#FFF101"></path>
                <path d="M28.9024703,59.3810484 C29.0483341,60.0366565 28.9936352,60.7843566 28.4648791,61.2513951 C28.0079824,61.6438829 27.2786637,61.8686314 26.7123692,61.5495981 C26.236167,61.3259458 25.7985758,60.8029943 25.689178,60.2789464 C25.725644,59.6617101 25.8350418,59.0642078 26.3466374,58.6333483 C27.1681934,57.8483728 28.537811,58.3910584 28.9024703,59.3810484" id="Fill-30" fill="#FFDA1A"></path>
                <path d="M27.8803516,59.9807434 C27.8256527,60.261405 27.6422505,60.4477819 27.368756,60.503695 C27.1681934,60.4861536 27.0040967,60.3918689 26.858233,60.205492 C26.7659956,59.8502796 26.9676308,59.4939709 27.2958242,59.4566955 C27.5703912,59.4566955 27.8621187,59.7000818 27.8803516,59.9807434" id="Fill-31" fill="#014A86"></path>
                <path d="M42.340167,57.8110974 C42.7230593,57.399972 42.3777055,56.7454603 42.4871033,56.164403 C47.6170022,57.9415612 50.0462769,64.0185434 54.4640176,67.084991 C53.112633,68.6187629 51.6336176,70.0407088 50.1556747,71.5733844 C49.5883077,69.4037384 48.7495912,67.1990098 47.5976967,65.2157407 C47.4529055,65.1214559 47.3799736,64.8605283 47.161178,64.9164413 C46.5766505,65.8877937 45.9921231,66.8602424 45.4065231,67.8337874 L45.1158681,67.8337874 L41.9025758,62.8969932 C40.660589,62.8038048 39.3467429,62.073646 38.9091516,60.8029943 C38.7622154,59.867821 38.7439824,58.8394592 37.7400967,58.334049 L38.7622154,57.5117981 L20.064844,47.0275513 C19.4266901,45.6626148 17.801811,45.3764715 16.632756,44.6463128 C16.4868923,44.3667475 16.7786198,44.1047235 16.8526242,43.8240619 C16.8526242,43.8240619 38.9263121,55.9780262 42.340167,57.8110974 Z M41.536844,57.7365467 C41.6644747,58.2035852 41.3727473,58.4283338 41.0263209,58.5587976 C40.7142154,58.4842468 40.2594637,58.4667055 40.2229978,58.0347497 C40.2229978,57.6422619 40.4600264,57.3813343 40.8064527,57.2870495 C41.0810198,57.3616003 41.4456791,57.399972 41.536844,57.7365467 Z M44.6042725,65.1411899 C45.4258286,65.0480015 46.0832879,63.8880796 46.8694505,64.3934898 L45.3346637,67.0104402 C44.3125451,65.8516147 43.4362901,64.1687412 42.4871033,62.7467954 C42.9793934,62.5045054 43.6561582,62.2797569 44.1666813,62.5231431 C44.4959473,63.3081186 44.5313407,64.335384 44.6042725,65.1411899 Z M44.4594813,58.4842468 C44.5313407,58.8208215 44.3854769,59.1201208 44.0937495,59.231947 C43.6733187,59.3251354 43.2346549,59.1376622 43.1434901,58.7089954 C43.1434901,58.3154113 43.3815912,58.0533874 43.7280176,57.9612953 C44.0197451,58.0172083 44.4208703,58.1114931 44.4594813,58.4842468 Z M46.0650549,63.7948911 C45.7733275,63.9637267 45.4451341,64.0569151 45.1158681,64.1687412 L44.8970725,62.8969932 C45.3164308,63.1217418 45.9009582,63.4024034 46.0650549,63.7948911 Z M46.4318593,61.6252452 C46.4672527,61.9618199 46.4125538,62.3356699 46.0650549,62.4485924 C45.6810901,62.5231431 45.170567,62.3926793 45.1888,61.9245445 C45.1351736,61.513419 45.463367,61.2886705 45.7733275,61.1779407 C46.0296615,61.2327574 46.339622,61.3259458 46.4318593,61.6252452 L46.4318593,61.6252452 Z" id="Fill-32" fill="#FFDA1A"></path>
                <path d="M25.5765626,9.58553546 C25.5808527,9.73573328 25.6527121,10.0207803 26.1310593,10.0207803 C26.390611,10.0207803 26.6791209,9.95719285 26.6791209,9.67214588 C26.6791209,9.46164966 26.4817758,9.4057366 26.2050637,9.3388602 L25.922989,9.27088746 C25.4993407,9.17002468 25.0907077,9.07245091 25.0907077,8.47933395 C25.0907077,8.17893829 25.2483692,7.65050507 26.0988835,7.65050507 C26.9022066,7.65050507 27.1177846,8.19099797 27.1210022,8.52099466 L26.5954637,8.52099466 C26.5804484,8.40039786 26.5364747,8.11644723 26.0581275,8.11644723 C25.8511297,8.11644723 25.6012308,8.19428698 25.6012308,8.43876957 C25.6012308,8.64816946 25.7696176,8.69311917 25.8790154,8.7194312 L26.5193143,8.88059237 C26.8764659,8.9704918 27.2057319,9.12178596 27.2057319,9.60417314 C27.2057319,10.4143643 26.4013363,10.4867224 26.1718154,10.4867224 C25.2151209,10.4867224 25.0499516,9.92101381 25.0499516,9.58553546 L25.5765626,9.58553546" id="Fill-33" fill="#FFDA1A"></path>
                <polyline id="Fill-34" fill="#FFDA1A" points="29.4440967 7.72176681 30.0136088 7.72176681 29.1223385 10.4143643 28.6000176 10.4143643 27.7162549 7.72176681 28.304 7.72176681 28.8670769 9.76204531 28.8735121 9.76204531 29.4440967 7.72176681"></polyline>
                <polyline id="Fill-35" fill="#FFDA1A" points="32.5908923 8.19867232 31.1998242 8.19867232 31.1998242 8.76547725 32.4782769 8.76547725 32.4782769 9.24128642 31.1998242 9.24128642 31.1998242 9.93855517 32.6541714 9.93855517 32.6541714 10.4143643 30.6635604 10.4143643 30.6635604 7.72176681 32.5908923 7.72176681 32.5908923 8.19867232"></polyline>
                <polyline id="Fill-36" fill="#FFDA1A" points="35.0008615 7.72176681 35.5135297 7.72176681 35.5135297 10.4143643 34.9643956 10.4143643 33.8961582 8.49468263 33.887578 8.49468263 33.887578 10.4143643 33.3770549 10.4143643 33.3770549 7.72176681 33.9530022 7.72176681 34.9933538 9.59759514 35.0008615 9.59759514 35.0008615 7.72176681"></polyline>
                <path d="M36.7329934,9.58553546 C36.736211,9.73573328 36.8102154,10.0207803 37.2874901,10.0207803 C37.5470418,10.0207803 37.8355516,9.95719285 37.8355516,9.67214588 C37.8355516,9.46164966 37.6382066,9.4057366 37.360422,9.3388602 L37.0804923,9.27088746 C36.6557714,9.17002468 36.2460659,9.07245091 36.2460659,8.47933395 C36.2460659,8.17893829 36.4037275,7.65050507 37.2542418,7.65050507 C38.0586374,7.65050507 38.2731429,8.19099797 38.277433,8.52099466 L37.750822,8.52099466 C37.7368791,8.40039786 37.693978,8.11644723 37.2145582,8.11644723 C37.0064879,8.11644723 36.7576615,8.19428698 36.7576615,8.43876957 C36.7576615,8.64816946 36.9249758,8.69311917 37.0354462,8.7194312 L37.6736,8.88059237 C38.0318242,8.9704918 38.3610901,9.12178596 38.3610901,9.60417314 C38.3610901,10.4143643 37.557767,10.4867224 37.3271736,10.4867224 C36.3715516,10.4867224 36.2063824,9.92101381 36.2063824,9.58553546 L36.7329934,9.58553546" id="Fill-37" fill="#FFDA1A"></path>
                <polyline id="Fill-38" fill="#FFDA1A" points="39.6685011 10.4143643 39.1204396 10.4143643 39.1204396 7.72176681 39.6685011 7.72176681 39.6685011 8.81810131 40.6680967 7.72176681 41.3781099 7.72176681 40.3088 8.82467931 41.439244 10.4143643 40.7345934 10.4143643 39.9248352 9.23361208 39.6685011 9.50331037 39.6685011 10.4143643"></polyline>
                <path d="M43.0587604,8.32913612 L43.0673407,8.32913612 L43.391244,9.39477325 L42.7230593,9.39477325 L43.0587604,8.32913612 Z M42.5771956,9.85961908 L43.5446154,9.85961908 L43.7119297,10.4143643 L44.3082549,10.4143643 L43.3837363,7.72176681 L42.7520176,7.72176681 L41.8167736,10.4143643 L42.3948659,10.4143643 L42.5771956,9.85961908 L42.5771956,9.85961908 Z" id="Fill-39" fill="#FFDA1A"></path>
                <path d="M7.35861099,13.3415775 L7.35861099,12.5511203 L7.79405714,12.5511203 C8.13297582,12.5511203 8.27562198,12.6596574 8.27562198,12.9216813 C8.27562198,13.0422781 8.27562198,13.3415775 7.86698901,13.3415775 L7.35861099,13.3415775 Z M7.35861099,13.8075196 L7.98711209,13.8075196 C8.69176264,13.8075196 8.82368352,13.1913796 8.82368352,12.9490897 C8.82368352,12.4195601 8.51586813,12.0862745 8.00856264,12.0862745 L6.81162198,12.0862745 L6.81162198,14.778872 L7.35861099,14.778872 L7.35861099,13.8075196 L7.35861099,13.8075196 Z" id="Fill-40" fill="#FFDA1A"></path>
                <polygon id="Fill-41" fill="#FFDA1A" points="9.50581099 14.778872 10.0538725 14.778872 10.0538725 12.0862745 9.50581099 12.0862745"></polygon>
                <path d="M11.2593934,13.9500431 C11.262611,14.1002409 11.3355429,14.3841916 11.8138901,14.3841916 C12.0734418,14.3841916 12.3619516,14.3217005 12.3619516,14.0355572 C12.3619516,13.8261573 12.1646066,13.7702442 11.886822,13.7022715 L11.6058198,13.6342988 C11.1821714,13.533436 10.7735385,13.4358622 10.7735385,12.8438416 C10.7735385,12.5434459 10.9301275,12.0139164 11.7806418,12.0139164 C12.5839648,12.0139164 12.8006154,12.5544093 12.803833,12.8855023 L12.277222,12.8855023 C12.2632791,12.7649055 12.220378,12.4798585 11.7409582,12.4798585 C11.5328879,12.4798585 11.2851341,12.5587946 11.2851341,12.8021809 C11.2851341,13.0126771 11.4524484,13.0565305 11.5618462,13.0828425 L12.2010725,13.2440037 C12.5582242,13.3339031 12.8874901,13.4851973 12.8874901,13.9686808 C12.8874901,14.778872 12.084167,14.8501337 11.8546462,14.8501337 C10.8979516,14.8501337 10.7327824,14.2833288 10.7327824,13.9500431 L11.2593934,13.9500431" id="Fill-42" fill="#FFDA1A"></path>
                <polyline id="Fill-43" fill="#FFDA1A" points="14.7215121 14.778872 14.1734505 14.778872 14.1734505 12.5620836 13.3808527 12.5620836 13.3808527 12.0862745 15.5130374 12.0862745 15.5130374 12.5620836 14.7215121 12.5620836 14.7215121 14.778872"></polyline>
                <path d="M16.4472088,13.4325732 C16.4472088,12.6782951 16.864422,12.4908219 17.159367,12.4908219 C17.4553846,12.4908219 17.8725978,12.6782951 17.8725978,13.4325732 C17.8725978,14.185755 17.4553846,14.3743246 17.159367,14.3743246 C16.864422,14.3743246 16.4472088,14.185755 16.4472088,13.4325732 Z M15.9002198,13.4325732 C15.9002198,14.6966469 16.8129407,14.8501337 17.159367,14.8501337 C17.5068659,14.8501337 18.4195868,14.6966469 18.4195868,13.4325732 C18.4195868,12.1674032 17.5068659,12.0139164 17.159367,12.0139164 C16.8129407,12.0139164 15.9002198,12.1674032 15.9002198,13.4325732 L15.9002198,13.4325732 Z" id="Fill-44" fill="#FFDA1A"></path>
                <polyline id="Fill-45" fill="#FFDA1A" points="19.6090198 14.2910031 20.9121407 14.2910031 20.9121407 14.778872 19.0609582 14.778872 19.0609582 12.0862745 19.6090198 12.0862745 19.6090198 14.2910031"></polyline>
                <path d="M21.8849231,13.9500431 C21.8892132,14.1002409 21.9621451,14.3841916 22.4404923,14.3841916 C22.700044,14.3841916 22.9874813,14.3217005 22.9874813,14.0355572 C22.9874813,13.8261573 22.7912088,13.7702442 22.5134242,13.7022715 L22.232422,13.6342988 C21.8087736,13.533436 21.4001407,13.4358622 21.4001407,12.8438416 C21.4001407,12.5434459 21.5567297,12.0139164 22.4083165,12.0139164 C23.210567,12.0139164 23.4261451,12.5544093 23.4304352,12.8855023 L22.9038242,12.8855023 C22.8898813,12.7649055 22.8459077,12.4798585 22.3675604,12.4798585 C22.1594901,12.4798585 21.9106637,12.5587946 21.9106637,12.8021809 C21.9106637,13.0126771 22.077978,13.0565305 22.1884484,13.0828425 L22.8276747,13.2440037 C23.1848264,13.3339031 23.5140923,13.4851973 23.5140923,13.9686808 C23.5140923,14.778872 22.7107692,14.8501337 22.4801758,14.8501337 C21.5245538,14.8501337 21.3593846,14.2833288 21.3593846,13.9500431 L21.8849231,13.9500431" id="Fill-46" fill="#FFDA1A"></path>
                <polyline id="Fill-47" fill="#FFDA1A" points="24.8215033 14.778872 24.2734418 14.778872 24.2734418 12.0862745 24.8215033 12.0862745 24.8215033 13.1815126 25.8221714 12.0862745 26.5300396 12.0862745 25.4607297 13.189187 26.5922462 14.778872 25.8875956 14.778872 25.0767648 13.5970234 24.8215033 13.867818 24.8215033 14.778872"></polyline>
                <polyline id="Fill-48" fill="#FFDA1A" points="28.5056352 14.778872 27.9575736 14.778872 27.9575736 13.7625699 27.0523604 12.0862745 27.6990945 12.0862745 28.2428659 13.2560634 28.7608967 12.0862745 29.3818901 12.0862745 28.5056352 13.7702442 28.5056352 14.778872"></polyline>
                <polyline id="Fill-49" fill="#FFDA1A" points="31.2298549 14.778872 30.6817934 14.778872 30.6817934 12.5620836 29.8902681 12.5620836 29.8902681 12.0862745 32.0224527 12.0862745 32.0224527 12.5620836 31.2298549 12.5620836 31.2298549 14.778872"></polyline>
                <polyline id="Fill-50" fill="#FFDA1A" points="33.8672 14.778872 33.3191385 14.778872 33.3191385 12.5620836 32.5265407 12.5620836 32.5265407 12.0862745 34.6587253 12.0862745 34.6587253 12.5620836 33.8672 12.5620836 33.8672 14.778872"></polyline>
                <polyline id="Fill-51" fill="#FFDA1A" points="37.2145582 12.5620836 35.8245626 12.5620836 35.8245626 13.1288886 37.1019429 13.1288886 37.1019429 13.6057941 35.8245626 13.6057941 35.8245626 14.3019665 37.2767648 14.3019665 37.2767648 14.778872 35.2872264 14.778872 35.2872264 12.0862745 37.2145582 12.0862745 37.2145582 12.5620836"></polyline>
                <polyline id="Fill-52" fill="#FFDA1A" points="38.4737055 14.778872 37.925644 14.778872 37.925644 12.0862745 39.7907692 12.0862745 39.7907692 12.5620836 38.4737055 12.5620836 38.4737055 13.1694529 39.6277451 13.1694529 39.6277451 13.6463584 38.4737055 13.6463584 38.4737055 14.778872"></polyline>
                <path d="M40.7903648,13.4325732 C40.7903648,12.6782951 41.2065055,12.4908219 41.5025231,12.4908219 C41.7974681,12.4908219 42.2146813,12.6782951 42.2146813,13.4325732 C42.2146813,14.185755 41.7974681,14.3743246 41.5025231,14.3743246 C41.2065055,14.3743246 40.7903648,14.185755 40.7903648,13.4325732 Z M40.2423033,13.4325732 C40.2423033,14.6966469 41.1560967,14.8501337 41.5025231,14.8501337 C41.850022,14.8501337 42.7627429,14.6966469 42.7627429,13.4325732 C42.7627429,12.1674032 41.850022,12.0139164 41.5025231,12.0139164 C41.1560967,12.0139164 40.2423033,12.1674032 40.2423033,13.4325732 Z M40.9179956,11.7793008 L41.3791824,11.7793008 L41.3791824,11.347345 L40.9179956,11.347345 L40.9179956,11.7793008 Z M41.6301538,11.7793008 L42.0913407,11.7793008 L42.0913407,11.347345 L41.6301538,11.347345 L41.6301538,11.7793008 Z" id="Fill-53" fill="#FFDA1A"></path>
                <path d="M43.940378,13.271412 L43.940378,12.5511203 L44.6225055,12.5511203 C44.9442637,12.5511203 45.0053978,12.7616165 45.0053978,12.9030437 C45.0053978,13.1694529 44.8670418,13.271412 44.582822,13.271412 L43.940378,13.271412 Z M43.4030418,14.778872 L43.940378,14.778872 L43.940378,13.7241982 L44.5066725,13.7241982 C44.9110154,13.7241982 44.9335385,13.867818 44.9335385,14.2350901 C44.9335385,14.5124627 44.954989,14.6516972 44.9925275,14.778872 L45.597433,14.778872 L45.597433,14.7076102 C45.4805275,14.6615642 45.4805275,14.5639904 45.4805275,14.1715027 C45.4805275,13.6682851 45.363622,13.5849637 45.1491165,13.4884863 C45.4065231,13.3985868 45.5534593,13.1442372 45.5534593,12.8471306 C45.5534593,12.6147077 45.4258286,12.0862745 44.7286857,12.0862745 L43.4030418,12.0862745 L43.4030418,14.778872 L43.4030418,14.778872 Z" id="Fill-54" fill="#FFDA1A"></path>
                <path d="M46.770778,13.5937344 L47.4679209,13.5937344 C47.6641934,13.5937344 47.8615385,13.6825375 47.8615385,13.9204421 C47.8615385,14.1945257 47.7092396,14.3129298 47.4421802,14.3129298 L46.770778,14.3129298 L46.770778,13.5937344 Z M46.2452396,14.778872 L47.354233,14.778872 C47.8915692,14.778872 48.0342154,14.6845872 48.1822242,14.5343894 C48.3227253,14.3962512 48.4085275,14.1945257 48.4085275,13.9796441 C48.4085275,13.7132348 48.3259429,13.4501146 48.0041846,13.3273251 C48.1135824,13.271412 48.3259429,13.1617786 48.3259429,12.7758689 C48.3259429,12.4984962 48.1618462,12.0862745 47.5183297,12.0862745 L46.2452396,12.0862745 L46.2452396,14.778872 Z M46.770778,12.5511203 L47.3982066,12.5511203 C47.6459604,12.5511203 47.8004044,12.6179967 47.8004044,12.8405526 C47.8004044,13.0532415 47.6288,13.1398519 47.4121495,13.1398519 L46.770778,13.1398519 L46.770778,12.5511203 L46.770778,12.5511203 Z" id="Fill-55" fill="#FFDA1A"></path>
                <path d="M51.2496527,13.8371206 C51.2496527,14.5464491 50.8324396,14.8501337 50.1717626,14.8501337 C49.930444,14.8501337 49.5732923,14.7898353 49.3384088,14.523426 C49.1968352,14.3578795 49.1421363,14.1408053 49.1357011,13.871107 L49.1357011,12.0862745 L49.6934154,12.0862745 L49.6934154,13.8338316 C49.6934154,14.208778 49.9047033,14.3743246 50.1599648,14.3743246 C50.5374945,14.3743246 50.6897934,14.185755 50.6897934,13.8590473 L50.6897934,12.0862745 L51.2496527,12.0862745 L51.2496527,13.8371206" id="Fill-56" fill="#FFDA1A"></path>
                <polyline id="Fill-57" fill="#FFDA1A" points="53.7904703 12.0862745 54.3009934 12.0862745 54.3009934 14.778872 53.7550769 14.778872 52.6846945 12.8580939 52.6771868 12.8580939 52.6771868 14.778872 52.1645187 14.778872 52.1645187 12.0862745 52.742611 12.0862745 53.7840352 13.9610064 53.7904703 13.9610064 53.7904703 12.0862745"></polyline>
                <path d="M55.6695385,12.5511203 L56.1950769,12.5511203 C56.4288879,12.5511203 56.7978374,12.6147077 56.7978374,13.4095502 C56.7978374,13.8524693 56.6476835,14.3129298 56.2015121,14.3129298 L55.6695385,14.3129298 L55.6695385,12.5511203 Z M55.1332747,14.778872 L56.2680088,14.778872 C57.1335385,14.778872 57.3566242,13.9456578 57.3566242,13.3689858 C57.3566242,12.8580939 57.173222,12.0862745 56.2905319,12.0862745 L55.1332747,12.0862745 L55.1332747,14.778872 L55.1332747,14.778872 Z" id="Fill-58" fill="#FFDA1A"></path>
                <polyline id="Fill-59" fill="#FFDA1A" points="59.8995868 12.5620836 58.5074462 12.5620836 58.5074462 13.1288886 59.788044 13.1288886 59.788044 13.6057941 58.5074462 13.6057941 58.5074462 14.3019665 59.9617934 14.3019665 59.9617934 14.778872 57.9711824 14.778872 57.9711824 12.0862745 59.8995868 12.0862745 59.8995868 12.5620836"></polyline>
                <polyline id="Fill-60" fill="#FFDA1A" points="61.8237011 14.778872 61.2767121 14.778872 61.2767121 12.5620836 60.4830418 12.5620836 60.4830418 12.0862745 62.6162989 12.0862745 62.6162989 12.5620836 61.8237011 12.5620836 61.8237011 14.778872"></polyline>
                <path d="M30.217389,55.5669007 C30.217389,56.0153015 29.8516571,56.2784218 29.7787253,56.6895472 C30.217389,56.9866539 30.8930813,56.7257263 31.386444,56.9142958 C30.8566154,57.399972 30.2720879,58.2781359 29.5599297,58.2594983 L29.4869978,58.1849475 L30.4361846,57.0633973 L29.4140659,56.9866539 C29.2306637,56.8945618 29.4140659,56.6522719 29.5599297,56.5393494 L29.4140659,56.3891516 C28.7748396,56.6139002 28.3179429,57.5304358 27.5875516,57.2870495 C28.3737143,56.6336342 29.3046681,56.0723109 30.217389,55.5669007" id="Fill-61" fill="#014A86"></path>
                <path d="M24.0096,62.7467954 C24.0460659,63.1590171 23.9731341,63.6819687 23.7908044,64.0941905 C23.4980044,63.9439926 23.2062769,63.7948911 22.9134769,63.6457896 C23.151578,63.3640317 23.6074022,62.9715439 24.0096,62.7467954" id="Fill-62" fill="#014A86"></path>
            </g>
        </g>
    </g>
</svg>